<svg width="1122" height="1083" viewBox="0 0 1122 1083" fill="none" xmlns="http://www.w3.org/2000/svg">
<g clip-path="url(#clip0_462_1150)">
<g filter="url(#filter0_f_462_1150)">
<ellipse cx="546.129" cy="527.349" rx="380.129" ry="400.486" fill="url(#paint0_linear_462_1150)"/>
</g>
<g filter="url(#filter1_f_462_1150)">
<ellipse cx="676.857" cy="372.039" rx="278.143" ry="293.039" fill="url(#paint1_linear_462_1150)"/>
</g>
<path d="M695.64 181.951C688.424 181.951 681.503 184.818 676.4 189.92C671.298 195.023 668.431 201.944 668.431 209.16C668.465 213.019 669.266 216.833 670.787 220.38C673.368 225.99 683.185 242.09 683.185 242.09L693.34 259.762C693.569 260.171 693.902 260.511 694.307 260.748C694.711 260.985 695.171 261.109 695.64 261.109C696.108 261.109 696.568 260.985 696.973 260.748C697.377 260.511 697.711 260.171 697.94 259.762L708.038 242.09C708.038 242.09 717.911 226.102 720.492 220.38C722.019 216.835 722.82 213.019 722.848 209.16C722.848 201.944 719.982 195.023 714.879 189.92C709.776 184.818 702.856 181.951 695.64 181.951ZM695.64 217.014C693.593 217.025 691.59 216.427 689.884 215.297C688.178 214.167 686.846 212.556 686.058 210.667C685.27 208.779 685.06 206.699 685.457 204.691C685.853 202.684 686.838 200.839 688.285 199.392C689.732 197.945 691.576 196.961 693.584 196.565C695.591 196.168 697.671 196.377 699.56 197.165C701.448 197.954 703.06 199.285 704.19 200.992C705.32 202.698 705.917 204.701 705.906 206.747C705.891 209.466 704.805 212.068 702.883 213.99C700.961 215.913 698.358 216.999 695.64 217.014V217.014Z" fill="black"/>
<path d="M553.988 151.321C553.363 151.321 552.764 151.57 552.322 152.011C551.88 152.453 551.632 153.053 551.632 153.677C551.632 154.302 551.88 154.902 552.322 155.344C552.764 155.785 553.363 156.034 553.988 156.034C554.613 156.034 555.212 155.785 555.654 155.344C556.096 154.902 556.344 154.302 556.344 153.677C556.344 153.053 556.096 152.453 555.654 152.011C555.212 151.57 554.613 151.321 553.988 151.321V151.321Z" fill="black"/>
<path d="M524.871 156.034C526.173 156.034 527.228 154.979 527.228 153.677C527.228 152.376 526.173 151.321 524.871 151.321C523.57 151.321 522.515 152.376 522.515 153.677C522.515 154.979 523.57 156.034 524.871 156.034Z" fill="black"/>
<path d="M545.797 139.762C546.15 139.814 546.51 139.814 546.863 139.762C547.325 139.768 547.779 139.639 548.168 139.389C548.557 139.14 548.864 138.782 549.051 138.359C549.571 137.488 550.3 136.761 551.172 136.242C552.043 135.722 553.03 135.428 554.044 135.386C554.635 135.317 555.234 135.418 555.77 135.676C556.306 135.934 556.758 136.339 557.073 136.844C557.408 137.395 557.948 137.79 558.574 137.942C559.2 138.095 559.861 137.993 560.411 137.658C560.962 137.323 561.357 136.783 561.509 136.157C561.662 135.531 561.559 134.87 561.225 134.32C560.453 133.058 559.348 132.034 558.032 131.361C556.715 130.688 555.238 130.392 553.763 130.505C551.902 130.611 550.096 131.18 548.509 132.159C546.922 133.139 545.604 134.498 544.675 136.115C544.483 136.422 544.36 136.767 544.313 137.125C544.266 137.484 544.297 137.849 544.404 138.195C544.51 138.54 544.69 138.859 544.93 139.13C545.17 139.4 545.466 139.616 545.797 139.762V139.762Z" fill="black"/>
<path d="M514.661 146.663C515.19 146.659 515.702 146.482 516.12 146.158C517.781 145.133 519.647 144.486 521.586 144.263C523.525 144.04 525.49 144.246 527.34 144.868C527.615 145.025 527.918 145.124 528.233 145.161C528.547 145.198 528.866 145.171 529.169 145.082C529.473 144.993 529.755 144.844 530 144.643C530.245 144.443 530.447 144.195 530.594 143.914C530.899 143.362 530.976 142.713 530.809 142.104C530.641 141.496 530.241 140.978 529.696 140.661C527.03 139.577 524.14 139.159 521.276 139.443C518.412 139.726 515.661 140.702 513.259 142.287C512.76 142.694 512.44 143.28 512.367 143.919C512.293 144.558 512.472 145.201 512.866 145.71C513.075 145.992 513.345 146.225 513.655 146.39C513.966 146.555 514.31 146.648 514.661 146.663Z" fill="black"/>
<path d="M541.645 192.048C539.289 194.853 532.782 192.048 530.033 190.141C529.771 189.954 529.473 189.823 529.159 189.756C528.844 189.689 528.519 189.687 528.204 189.75C527.889 189.813 527.59 189.94 527.325 190.123C527.061 190.306 526.837 190.541 526.667 190.814C526.32 191.353 526.197 192.005 526.322 192.633C526.448 193.261 526.813 193.816 527.34 194.18C530.672 196.439 534.543 197.775 538.56 198.051C539.821 198.104 541.078 197.869 542.235 197.364C543.392 196.858 544.418 196.095 545.236 195.134C545.678 194.674 545.925 194.061 545.925 193.423C545.925 192.785 545.678 192.171 545.236 191.712C544.987 191.479 544.691 191.302 544.369 191.192C544.046 191.082 543.704 191.042 543.365 191.074C543.026 191.105 542.697 191.209 542.401 191.377C542.104 191.545 541.847 191.773 541.645 192.048V192.048Z" fill="black"/>
<path d="M487.565 138.586C485.607 140.315 483.107 141.307 480.496 141.391C479.842 141.391 479.214 141.651 478.751 142.114C478.288 142.576 478.028 143.204 478.028 143.859C478.042 144.504 478.309 145.117 478.77 145.568C479.232 146.019 479.851 146.271 480.496 146.271C484.34 146.171 488.022 144.699 490.875 142.12C491.107 141.903 491.294 141.642 491.425 141.352C491.556 141.062 491.629 140.75 491.64 140.432C491.65 140.114 491.598 139.798 491.486 139.5C491.374 139.202 491.204 138.93 490.987 138.698C490.77 138.466 490.509 138.279 490.219 138.147C489.929 138.016 489.617 137.943 489.299 137.933C488.981 137.923 488.665 137.975 488.367 138.087C488.069 138.199 487.797 138.368 487.565 138.586V138.586Z" fill="black"/>
<path d="M538.56 180.717C539.758 181.193 541.03 181.459 542.319 181.503C543.702 181.534 545.053 181.077 546.133 180.212C549.387 177.576 549.107 172.022 548.377 166.973C548.377 165.346 547.816 163.551 547.424 161.643C546.023 156.36 545.586 150.868 546.133 145.43C546.198 145.113 546.198 144.786 546.134 144.469C546.07 144.151 545.942 143.85 545.759 143.583C545.576 143.316 545.34 143.089 545.068 142.915C544.795 142.741 544.489 142.623 544.17 142.569C543.539 142.453 542.887 142.587 542.353 142.943C541.818 143.299 541.444 143.849 541.309 144.477C540.63 150.526 541.068 156.649 542.599 162.541C542.936 164.392 543.272 166.131 543.497 167.702C544.45 174.21 543.497 175.949 543.048 176.398C542.599 176.846 541.533 176.678 540.187 176.398C539.584 176.177 538.918 176.2 538.331 176.461C537.745 176.723 537.283 177.204 537.045 177.8C536.896 178.388 536.967 179.009 537.246 179.547C537.526 180.085 537.993 180.502 538.56 180.717V180.717Z" fill="black"/>
<path d="M731.263 331.963L674.658 343.183L636.566 329.607C616.988 282.876 601.336 267.897 600.662 266.999L600.27 267.111C589.723 261.109 563.973 259.931 556.119 259.762C555.877 257.39 555.081 255.108 553.795 253.101C552.508 251.093 550.768 249.416 548.714 248.206C547.367 241.642 546.189 235.695 545.18 230.142C543.945 223.578 542.711 217.407 541.309 211.236H542.262C551.126 207.645 579.232 162.653 574.015 142.121C570.068 128.751 564.15 116.045 556.456 104.421C565.88 102.514 590.116 96.6796 594.94 87.5914C595.549 86.4826 595.868 85.238 595.868 83.973C595.868 82.708 595.549 81.4634 594.94 80.3545C592.416 75.4177 584.169 71.9395 543.609 88.6012C537.82 82.0005 529.649 77.9654 520.888 77.3812C517.395 77.6083 513.988 78.5641 510.887 80.1874C507.785 81.8106 505.058 84.0652 502.88 86.806C496.826 94.5686 492.952 103.806 491.66 113.566C490.819 117.942 490.202 122.205 489.641 126.132C487.711 125.033 485.469 124.613 483.272 124.938C481.075 125.264 479.051 126.316 477.523 127.927C471.184 133.818 468.771 146.889 472.979 152.443C474.267 153.985 475.894 155.208 477.734 156.015C479.573 156.823 481.575 157.194 483.582 157.099C484.385 157.155 485.191 157.155 485.994 157.099C484.255 179.539 484.535 200.352 484.872 222.344C484.872 230.983 484.872 239.679 484.872 248.598C481.363 250.963 478.816 254.505 477.691 258.584C467.649 259.145 433.709 261.445 422.657 267.224C392.307 282.932 358.142 395.58 366.557 417.74C366.557 417.74 366.557 418.245 366.557 418.525C370.476 427.474 376.907 435.094 385.07 440.46C403.078 449.941 433.989 454.822 478.14 455.215C477.158 451.238 477.107 447.088 477.993 443.088C478.878 439.089 480.676 435.348 483.245 432.158C472.025 428.174 431.97 413.027 420.638 398.498C409.193 382.229 439.712 327.419 443.19 321.192C443.347 320.914 443.558 320.671 443.809 320.475C444.061 320.28 444.35 320.136 444.657 320.052C444.965 319.969 445.287 319.947 445.603 319.989C445.919 320.03 446.224 320.134 446.5 320.294C447.059 320.613 447.471 321.137 447.649 321.755C447.827 322.374 447.757 323.037 447.453 323.604C438.309 339.649 416.542 383.855 425.35 395.244C435.448 408.371 473.989 423.294 488.294 428.399C490.806 429.087 493.381 429.519 495.98 429.689C496.734 429.751 497.486 429.553 498.112 429.128C498.71 428.694 499.129 428.055 499.29 427.333C500.021 425.26 501.23 423.387 502.818 421.867C504.407 420.347 506.331 419.221 508.434 418.581C510.219 417.806 512.158 417.449 514.102 417.536C516.047 417.624 517.946 418.154 519.654 419.086L515.222 432.214C514.118 432.321 513.004 432.208 511.945 431.88C510.886 431.553 509.902 431.018 509.051 430.306C508.549 429.906 507.911 429.718 507.272 429.781C506.633 429.844 506.044 430.153 505.629 430.643C505.424 430.889 505.27 431.173 505.176 431.479C505.082 431.784 505.049 432.106 505.081 432.424C505.112 432.743 505.206 433.052 505.358 433.334C505.51 433.615 505.717 433.864 505.966 434.065C507.526 435.31 509.334 436.209 511.268 436.702C513.202 437.195 515.22 437.272 517.186 436.926C521.072 436.161 524.843 434.897 528.406 433.167C533.455 430.979 536.877 429.689 537.83 431.26C538.784 432.831 537.83 433.728 536.091 435.524C530.481 442.143 515.615 448.258 505.573 442.648C505.006 442.345 504.342 442.274 503.724 442.452C503.106 442.63 502.582 443.043 502.263 443.602C502.105 443.881 502.005 444.189 501.967 444.508C501.93 444.826 501.956 445.149 502.045 445.457C502.134 445.765 502.283 446.053 502.484 446.303C502.686 446.552 502.935 446.759 503.217 446.912C506.76 448.842 510.739 449.827 514.773 449.773C523.629 449.536 532.09 446.063 538.56 440.012C539.221 440.592 539.658 441.386 539.794 442.256C539.612 443.513 539.181 444.722 538.526 445.81C537.871 446.899 537.005 447.846 535.979 448.595C535.175 449.354 534.312 450.048 533.399 450.671C529.247 453.959 524.303 456.095 519.063 456.863C513.823 457.631 508.474 457.005 503.553 455.046C502.936 454.86 502.27 454.927 501.702 455.232C501.134 455.538 500.71 456.056 500.524 456.673C500.338 457.291 500.405 457.957 500.71 458.525C501.015 459.093 501.533 459.517 502.151 459.703C506.474 461.06 510.972 461.778 515.503 461.834C523.03 461.829 530.338 459.301 536.26 454.654C536.933 454.149 537.662 453.476 538.391 452.858C538.645 452.764 538.924 452.764 539.177 452.858C539.384 453.217 539.493 453.623 539.493 454.037C539.493 454.45 539.384 454.856 539.177 455.215C539.177 455.832 531.828 470.53 505.517 467.164C503.666 467.164 501.758 466.603 499.907 466.21C496.475 465.235 493.148 463.919 489.977 462.283C488.408 461.408 486.729 460.747 484.984 460.32L480.665 459.871C455.374 460.312 430.121 457.751 405.434 452.241C401.048 486.631 398.669 521.248 398.31 555.914V559.392C398.287 559.714 398.335 560.037 398.452 560.337C398.568 560.638 398.75 560.909 398.983 561.131C399.443 561.595 400.069 561.857 400.722 561.861H403.527C403.527 580.542 403.134 600.57 403.022 621.383C398.066 622.67 392.99 623.441 387.875 623.683C387.291 623.772 386.759 624.067 386.374 624.514C385.989 624.962 385.778 625.533 385.778 626.123C385.778 626.714 385.989 627.284 386.374 627.732C386.759 628.18 387.291 628.475 387.875 628.564C392.914 628.226 397.91 627.418 402.798 626.151C402.349 734.985 403.751 866.372 404.537 937.226V952.205C404.537 973.523 404.93 990.128 404.537 994.223V1004.83C404.537 1005.48 404.797 1006.11 405.26 1006.57C405.723 1007.03 406.351 1007.29 407.005 1007.29H627.759C628.404 1007.28 629.017 1007.01 629.468 1006.55C629.919 1006.09 630.171 1005.47 630.171 1004.83V994.392C630.746 991.685 630.759 988.889 630.209 986.178C629.659 983.466 628.558 980.896 626.973 978.628C624.595 975.832 621.673 973.549 618.384 971.919C615.095 970.289 611.508 969.346 607.843 969.147C590.747 966.103 574.141 960.763 558.475 953.27L552.416 950.69C580.466 860.93 617.997 723.597 621.644 561.356C621.644 561.356 621.644 561.356 621.644 561.019C622.215 560.887 622.727 560.572 623.102 560.122C623.547 559.543 623.784 558.832 623.776 558.102C623.439 552.885 622.654 540.655 621.027 518.832L666.861 508.341C667.24 508.237 667.589 508.046 667.881 507.783C668.174 507.52 668.4 507.193 668.543 506.827L681.39 473.167C683.782 473.728 686.227 474.029 688.683 474.064C689.58 474.121 690.479 474.121 691.376 474.064C696.289 473.549 700.97 471.713 704.921 468.749C708.872 465.785 711.946 461.806 713.816 457.234C716.475 451.021 716.596 444.013 714.153 437.711C712.996 434.372 711.331 431.23 709.216 428.399C707.494 426.064 705.411 424.019 703.045 422.34L701.25 420.825L733.9 335.161C734.049 334.757 734.087 334.321 734.011 333.898C733.935 333.475 733.746 333.08 733.466 332.753C733.186 332.427 732.823 332.182 732.416 332.043C732.009 331.904 731.572 331.876 731.151 331.963H731.263ZM591.013 82.7107C591.26 83.1267 591.39 83.6015 591.39 84.0852C591.39 84.5689 591.26 85.0437 591.013 85.4596C587.03 92.8087 560.663 99.148 553.875 100.326C551.799 97.465 549.724 94.7161 547.648 92.5843C585.403 77.1568 590.228 81.6448 590.789 82.7107H591.013ZM506.863 90.1159C508.594 87.8739 510.777 86.021 513.271 84.6775C515.764 83.3341 518.513 82.5302 521.337 82.318C528.126 82.7176 534.489 85.7581 539.065 90.7891C522.235 97.8577 506.358 105.656 498.056 109.695C499.314 102.567 502.279 95.8501 506.695 90.1159H506.863ZM490.538 247.196C490.538 238.725 490.538 230.366 490.538 222.288C490.202 199.848 489.921 178.586 491.772 155.753C492.366 155.544 492.946 155.3 493.511 155.024C493.798 154.875 494.052 154.669 494.258 154.42C494.463 154.171 494.617 153.884 494.709 153.574C494.802 153.265 494.831 152.94 494.796 152.619C494.76 152.297 494.661 151.987 494.503 151.705C494.345 151.423 494.132 151.176 493.877 150.978C493.622 150.78 493.329 150.635 493.017 150.552C492.705 150.469 492.379 150.45 492.059 150.495C491.74 150.541 491.432 150.65 491.155 150.816C490.331 151.239 489.467 151.577 488.575 151.826C486.747 152.55 484.75 152.734 482.82 152.356C480.891 151.978 479.111 151.054 477.691 149.694C475.167 146.384 476.906 136.118 481.674 131.63C484.367 129.105 487.284 129.274 490.594 132.135C492.283 133.646 493.755 135.383 494.97 137.296C495.15 137.558 495.38 137.783 495.647 137.956C495.913 138.129 496.212 138.247 496.525 138.305C496.838 138.362 497.159 138.357 497.469 138.29C497.78 138.223 498.075 138.095 498.336 137.913C498.603 137.738 498.832 137.511 499.011 137.246C499.189 136.981 499.313 136.684 499.376 136.371C499.439 136.058 499.438 135.735 499.375 135.422C499.312 135.109 499.188 134.812 499.009 134.547C497.817 132.783 496.444 131.147 494.914 129.666V128.937C495.475 124.954 496.092 120.41 496.934 115.81L499.851 114.407C508.21 110.312 525.376 101.953 542.879 94.6039C545.615 97.7081 548.145 100.988 550.453 104.421C558.694 116.179 565.018 129.168 569.19 142.906C574.071 161.924 546.358 203.887 540.299 206.355C539.513 206.639 538.706 206.864 537.887 207.028C527.564 208.992 513.82 199.287 509.276 190.198C509.15 189.906 508.965 189.642 508.732 189.424C508.499 189.207 508.224 189.04 507.923 188.935C507.623 188.829 507.303 188.787 506.986 188.812C506.668 188.836 506.359 188.926 506.078 189.076C505.783 189.208 505.519 189.399 505.301 189.637C505.083 189.875 504.916 190.155 504.811 190.46C504.706 190.765 504.664 191.088 504.689 191.41C504.714 191.732 504.805 192.045 504.956 192.33C507.908 197.924 512.219 202.684 517.493 206.175C522.768 209.665 528.835 211.772 535.138 212.302H536.428C537.83 218.473 539.065 224.644 540.299 231.207C541.253 236.256 542.262 241.698 543.497 247.308C525.862 245.08 508.022 245.005 490.37 247.084L490.538 247.196ZM506.919 472.437C508.931 472.673 510.953 472.804 512.978 472.83C536.372 472.83 543.384 458.244 543.721 457.571C544.327 456.42 544.6 455.123 544.511 453.825C544.422 452.527 543.974 451.279 543.216 450.222C542.92 449.863 542.581 449.543 542.206 449.268C543.952 447.266 544.891 444.687 544.843 442.031C544.739 440.941 544.417 439.883 543.897 438.919C543.376 437.956 542.668 437.106 541.814 436.421C542.639 435.32 543.131 434.005 543.23 432.633C543.33 431.26 543.033 429.888 542.375 428.679C539.121 423.462 532.95 426.099 526.947 428.679C524.915 429.608 522.837 430.432 520.72 431.148L555.39 327.98H614.8L560.775 496.28L496.485 502.731L506.919 472.437ZM534.633 1002.81H409.866V997.87L534.464 997.309L534.633 1002.81ZM534.633 996.692C535.725 991.391 534.698 985.873 531.772 981.32C527.943 977.183 522.648 974.707 517.017 974.42C499.54 971.377 482.555 965.98 466.527 958.376C463.666 957.141 461.366 956.132 459.795 955.571L461.534 951.026C472.306 916.805 484.479 876.862 495.531 834.338C495.868 867.998 496.204 898.124 496.485 921.237C496.485 934.028 496.485 944.687 496.877 952.541C496.877 955.066 496.877 961.405 496.877 964.939C503.521 967.136 510.359 968.695 517.298 969.596C520.737 969.782 524.103 970.658 527.196 972.171C530.29 973.684 533.048 975.803 535.306 978.403C537.168 981.025 538.477 983.999 539.152 987.143C539.827 990.288 539.855 993.537 539.233 996.692H534.633ZM625.346 997.253V1002.86H539.513V997.253H625.346ZM617.1 561.524C613.397 723.429 576.035 860.481 547.928 949.961H501.814C501.814 942.387 501.814 932.682 501.478 921.069C501.141 893.917 500.692 857.059 500.356 816.443C519.598 738.8 529.92 670.583 531.828 607.19C531.843 606.876 531.795 606.562 531.687 606.266C531.579 605.971 531.412 605.701 531.198 605.47C530.984 605.24 530.726 605.056 530.439 604.927C530.152 604.798 529.842 604.728 529.528 604.721C529.206 604.706 528.885 604.756 528.583 604.867C528.281 604.977 528.004 605.148 527.769 605.367C527.534 605.587 527.345 605.851 527.213 606.145C527.082 606.439 527.01 606.756 527.003 607.077C523.941 677.579 513.391 747.555 495.531 815.825C483.357 864.969 469.22 911.195 457.103 949.961H409.53V937.394C408.8 866.259 407.398 734.2 407.791 625.142C431.914 617.849 445.378 601.019 444.704 578.747C444.704 578.107 444.45 577.493 443.998 577.041C443.546 576.589 442.932 576.335 442.292 576.335C441.652 576.335 441.039 576.589 440.586 577.041C440.134 577.493 439.88 578.107 439.88 578.747C440.609 605.282 419.684 615.997 407.847 619.924C407.847 599.616 407.847 580.037 408.296 561.749L616.988 561.244L617.1 561.524ZM617.1 513.951L565.6 497.121L619.344 329.775C619.398 329.46 619.398 329.137 619.344 328.821L671.573 347.503L617.1 513.951ZM705.738 430.979C707.551 433.446 708.988 436.169 710.001 439.058C712.066 444.168 712.066 449.88 710.001 454.99C708.406 458.863 705.779 462.224 702.406 464.707C699.033 467.19 695.043 468.699 690.871 469.071C687.353 469.357 683.813 468.977 680.437 467.949C674.585 466.5 669.198 463.585 664.785 459.478C664.547 458.989 664.423 458.452 664.423 457.907C664.423 457.363 664.547 456.826 664.785 456.337V456.337C665.851 457.176 666.997 457.909 668.207 458.525C675.682 461.962 683.77 463.869 691.993 464.135C692.653 464.15 693.293 463.906 693.776 463.455C694.258 463.004 694.545 462.382 694.574 461.722C694.559 461.077 694.293 460.464 693.831 460.013C693.37 459.562 692.751 459.31 692.106 459.31C692.106 459.31 692.106 459.31 692.106 459.31C684.643 459.118 677.289 457.48 670.451 454.485C669.421 453.84 668.462 453.088 667.59 452.241C665.458 450.39 664.673 448.763 664.841 447.978C665.009 447.192 665.626 446.856 666.748 446.351C673.94 450.722 682.125 453.193 690.535 453.532C692.16 453.555 693.782 453.367 695.359 452.971C695.673 452.905 695.971 452.776 696.233 452.592C696.495 452.408 696.717 452.172 696.885 451.899C697.053 451.626 697.164 451.321 697.21 451.004C697.257 450.687 697.238 450.363 697.154 450.053C696.983 449.433 696.577 448.904 696.021 448.58C695.466 448.255 694.806 448.16 694.181 448.314C685.07 449.091 675.967 446.736 668.375 441.638C665.795 439.787 665.458 438.665 665.514 438.497C665.57 438.329 666.131 437.543 666.299 437.487C668.151 436.589 673.144 438.609 677.127 440.236C681.642 442.676 686.763 443.767 691.881 443.378C693.064 443.066 694.134 442.423 694.967 441.526C695.192 441.302 695.371 441.035 695.493 440.742C695.616 440.448 695.678 440.133 695.678 439.815C695.678 439.497 695.616 439.182 695.493 438.889C695.371 438.595 695.192 438.328 694.967 438.104L699.791 425.482L700.521 426.043C702.411 427.507 704.092 429.225 705.513 431.148L705.738 430.979ZM689.525 438.665C685.879 438.271 682.329 437.246 679.034 435.636C673.424 433.392 667.814 431.26 664.28 433.055C663.366 433.479 662.572 434.124 661.97 434.931C661.368 435.739 660.977 436.684 660.832 437.681C660.687 438.678 660.793 439.695 661.141 440.641C661.488 441.587 662.066 442.431 662.821 443.097C661.455 443.989 660.49 445.377 660.128 446.968C660.026 447.968 660.121 448.978 660.41 449.941C660.699 450.904 661.175 451.8 661.811 452.578L661.419 452.971C660.564 454.104 660.026 455.444 659.858 456.853C659.691 458.262 659.9 459.691 660.465 460.993C661.699 464.191 669.161 468.959 676.902 471.596L664.729 503.573L622.037 513.951L676.341 348.176L727.897 337.685L689.525 438.665Z" fill="black"/>
<path d="M744.054 163.943H647.674C643.734 163.76 639.881 165.144 636.959 167.793C634.036 170.442 632.282 174.141 632.078 178.08V264.081C632.165 266.042 632.637 267.966 633.468 269.743C634.299 271.521 635.472 273.117 636.921 274.441C638.369 275.764 640.065 276.789 641.91 277.457C643.755 278.124 645.714 278.421 647.674 278.331H713.984C714.377 300.154 717.294 301.612 718.865 302.398C719.358 302.622 719.894 302.737 720.436 302.734C721.358 302.694 722.242 302.36 722.96 301.781C726.551 299.032 729.636 291.065 732.217 278.331H744.054C747.994 278.514 751.847 277.13 754.769 274.48C757.692 271.831 759.446 268.133 759.65 264.194V178.08C759.446 174.141 757.692 170.442 754.769 167.793C751.847 165.144 747.994 163.76 744.054 163.943ZM754.769 264.081C754.568 266.731 753.33 269.195 751.324 270.938C749.318 272.682 746.706 273.564 744.054 273.394H733.114C733.563 270.869 733.788 269.243 733.788 269.243C733.835 268.925 733.819 268.602 733.74 268.291C733.661 267.98 733.52 267.688 733.327 267.432C733.134 267.176 732.891 266.961 732.614 266.8C732.337 266.639 732.03 266.535 731.712 266.494C731.074 266.413 730.429 266.585 729.916 266.973C729.402 267.36 729.06 267.933 728.963 268.569C728.963 268.569 728.627 271.374 727.841 275.245C726.944 282.922 724.521 290.341 720.716 297.068C719.069 290.108 718.427 282.948 718.809 275.806C718.809 269.299 718.809 264.025 718.809 264.025C718.824 263.38 718.586 262.754 718.146 262.282C717.705 261.811 717.098 261.53 716.453 261.501C715.815 261.512 715.205 261.759 714.738 262.194C714.272 262.629 713.984 263.222 713.928 263.857C713.928 263.857 713.928 267.952 713.928 273.394H647.674C645.019 273.579 642.398 272.702 640.389 270.956C638.38 269.209 637.146 266.737 636.959 264.081V178.08C637.16 175.435 638.4 172.976 640.408 171.242C642.415 169.507 645.028 168.638 647.674 168.824H744.054C746.697 168.653 749.301 169.528 751.306 171.259C753.31 172.991 754.554 175.44 754.769 178.08V264.081Z" fill="black"/>
</g>
<defs>
<filter id="filter0_f_462_1150" x="-34" y="-73.1377" width="1160.26" height="1200.97" filterUnits="userSpaceOnUse" color-interpolation-filters="sRGB">
<feFlood flood-opacity="0" result="BackgroundImageFix"/>
<feBlend mode="normal" in="SourceGraphic" in2="BackgroundImageFix" result="shape"/>
<feGaussianBlur stdDeviation="100" result="effect1_foregroundBlur_462_1150"/>
</filter>
<filter id="filter1_f_462_1150" x="298.713" y="-21" width="756.287" height="786.078" filterUnits="userSpaceOnUse" color-interpolation-filters="sRGB">
<feFlood flood-opacity="0" result="BackgroundImageFix"/>
<feBlend mode="normal" in="SourceGraphic" in2="BackgroundImageFix" result="shape"/>
<feGaussianBlur stdDeviation="50" result="effect1_foregroundBlur_462_1150"/>
</filter>
<linearGradient id="paint0_linear_462_1150" x1="546.129" y1="126.862" x2="546.129" y2="927.835" gradientUnits="userSpaceOnUse">
<stop stop-color="#B6FFAA"/>
<stop offset="1" stop-color="#52FF00" stop-opacity="0.46"/>
</linearGradient>
<linearGradient id="paint1_linear_462_1150" x1="676.857" y1="79" x2="676.857" y2="665.078" gradientUnits="userSpaceOnUse">
<stop stop-color="#D4FFD0"/>
<stop offset="0.9998" stop-color="#DEFFD9" stop-opacity="0"/>
<stop offset="0.9999" stop-color="#B7FFB0"/>
</linearGradient>
<clipPath id="clip0_462_1150">
<rect width="1122" height="1083" fill="white"/>
</clipPath>
</defs>
</svg>
