<svg id="visual" viewBox="0 0 960 540" width="960" height="540" xmlns="http://www.w3.org/2000/svg" xmlns:xlink="http://www.w3.org/1999/xlink" version="1.1"><path d="M0 98L20 101.7C40 105.3 80 112.7 120 128.8C160 145 200 170 240 170C280 170 320 145 360 146.8C400 148.7 440 177.3 480 189C520 200.7 560 195.3 600 176.5C640 157.7 680 125.3 720 117.2C760 109 800 125 840 146.5C880 168 920 195 940 208.5L960 222L960 0L940 0C920 0 880 0 840 0C800 0 760 0 720 0C680 0 640 0 600 0C560 0 520 0 480 0C440 0 400 0 360 0C320 0 280 0 240 0C200 0 160 0 120 0C80 0 40 0 20 0L0 0Z" fill="#d1ffda"></path><path d="M0 314L20 306C40 298 80 282 120 275.7C160 269.3 200 272.7 240 287C280 301.3 320 326.7 360 334C400 341.3 440 330.7 480 325.3C520 320 560 320 600 324.5C640 329 680 338 720 338.8C760 339.7 800 332.3 840 336.8C880 341.3 920 357.7 940 365.8L960 374L960 220L940 206.5C920 193 880 166 840 144.5C800 123 760 107 720 115.2C680 123.3 640 155.7 600 174.5C560 193.3 520 198.7 480 187C440 175.3 400 146.7 360 144.8C320 143 280 168 240 168C200 168 160 143 120 126.8C80 110.7 40 103.3 20 99.7L0 96Z" fill="#c4ffd2"></path><path d="M0 411L20 409.3C40 407.7 80 404.3 120 405.3C160 406.3 200 411.7 240 418.8C280 426 320 435 360 428.7C400 422.3 440 400.7 480 398C520 395.3 560 411.7 600 418C640 424.3 680 420.7 720 418.8C760 417 800 417 840 417.8C880 418.7 920 420.3 940 421.2L960 422L960 372L940 363.8C920 355.7 880 339.3 840 334.8C800 330.3 760 337.7 720 336.8C680 336 640 327 600 322.5C560 318 520 318 480 323.3C440 328.7 400 339.3 360 332C320 324.7 280 299.3 240 285C200 270.7 160 267.3 120 273.7C80 280 40 296 20 304L0 312Z" fill="#b6ffcb"></path><path d="M0 465L20 464.2C40 463.3 80 461.7 120 469C160 476.3 200 492.7 240 496.3C280 500 320 491 360 485.5C400 480 440 478 480 482.5C520 487 560 498 600 502.5C640 507 680 505 720 495C760 485 800 467 840 466.2C880 465.3 920 481.7 940 489.8L960 498L960 420L940 419.2C920 418.3 880 416.7 840 415.8C800 415 760 415 720 416.8C680 418.7 640 422.3 600 416C560 409.7 520 393.3 480 396C440 398.7 400 420.3 360 426.7C320 433 280 424 240 416.8C200 409.7 160 404.3 120 403.3C80 402.3 40 405.7 20 407.3L0 409Z" fill="#a9ffc2"></path><path d="M0 541L20 541C40 541 80 541 120 541C160 541 200 541 240 541C280 541 320 541 360 541C400 541 440 541 480 541C520 541 560 541 600 541C640 541 680 541 720 541C760 541 800 541 840 541C880 541 920 541 940 541L960 541L960 496L940 487.8C920 479.7 880 463.3 840 464.2C800 465 760 483 720 493C680 503 640 505 600 500.5C560 496 520 485 480 480.5C440 476 400 478 360 483.5C320 489 280 498 240 494.3C200 490.7 160 474.3 120 467C80 459.7 40 461.3 20 462.2L0 463Z" fill="#9cffb8"></path></svg>