<svg id="visual" viewBox="0 0 900 450" width="900" height="450" xmlns="http://www.w3.org/2000/svg" xmlns:xlink="http://www.w3.org/1999/xlink" version="1.1"><path d="M0 69L18.8 68.2C37.7 67.3 75.3 65.7 112.8 63.3C150.3 61 187.7 58 225.2 52C262.7 46 300.3 37 337.8 33.3C375.3 29.7 412.7 31.3 450.2 31.3C487.7 31.3 525.3 29.7 562.8 35.7C600.3 41.7 637.7 55.3 675.2 56.8C712.7 58.3 750.3 47.7 787.8 46.2C825.3 44.7 862.7 52.3 881.3 56.2L900 60L900 0L881.3 0C862.7 0 825.3 0 787.8 0C750.3 0 712.7 0 675.2 0C637.7 0 600.3 0 562.8 0C525.3 0 487.7 0 450.2 0C412.7 0 375.3 0 337.8 0C300.3 0 262.7 0 225.2 0C187.7 0 150.3 0 112.8 0C75.3 0 37.7 0 18.8 0L0 0Z" fill="#d1ffda"></path><path d="M0 141L18.8 136.5C37.7 132 75.3 123 112.8 117C150.3 111 187.7 108 225.2 112.5C262.7 117 300.3 129 337.8 138.7C375.3 148.3 412.7 155.7 450.2 144.3C487.7 133 525.3 103 562.8 99.3C600.3 95.7 637.7 118.3 675.2 128.8C712.7 139.3 750.3 137.7 787.8 136.2C825.3 134.7 862.7 133.3 881.3 132.7L900 132L900 58L881.3 54.2C862.7 50.3 825.3 42.7 787.8 44.2C750.3 45.7 712.7 56.3 675.2 54.8C637.7 53.3 600.3 39.7 562.8 33.7C525.3 27.7 487.7 29.3 450.2 29.3C412.7 29.3 375.3 27.7 337.8 31.3C300.3 35 262.7 44 225.2 50C187.7 56 150.3 59 112.8 61.3C75.3 63.7 37.7 65.3 18.8 66.2L0 67Z" fill="#c4ffd2"></path><path d="M0 280L18.8 277.8C37.7 275.7 75.3 271.3 112.8 272.8C150.3 274.3 187.7 281.7 225.2 280.2C262.7 278.7 300.3 268.3 337.8 274.3C375.3 280.3 412.7 302.7 450.2 286.8C487.7 271 525.3 217 562.8 217.8C600.3 218.7 637.7 274.3 675.2 282.7C712.7 291 750.3 252 787.8 237C825.3 222 862.7 231 881.3 235.5L900 240L900 130L881.3 130.7C862.7 131.3 825.3 132.7 787.8 134.2C750.3 135.7 712.7 137.3 675.2 126.8C637.7 116.3 600.3 93.7 562.8 97.3C525.3 101 487.7 131 450.2 142.3C412.7 153.7 375.3 146.3 337.8 136.7C300.3 127 262.7 115 225.2 110.5C187.7 106 150.3 109 112.8 115C75.3 121 37.7 130 18.8 134.5L0 139Z" fill="#b6ffcb"></path><path d="M0 330L18.8 333.7C37.7 337.3 75.3 344.7 112.8 352.8C150.3 361 187.7 370 225.2 366.3C262.7 362.7 300.3 346.3 337.8 345.7C375.3 345 412.7 360 450.2 347.2C487.7 334.3 525.3 293.7 562.8 295.8C600.3 298 637.7 343 675.2 350.5C712.7 358 750.3 328 787.8 313.8C825.3 299.7 862.7 301.3 881.3 302.2L900 303L900 238L881.3 233.5C862.7 229 825.3 220 787.8 235C750.3 250 712.7 289 675.2 280.7C637.7 272.3 600.3 216.7 562.8 215.8C525.3 215 487.7 269 450.2 284.8C412.7 300.7 375.3 278.3 337.8 272.3C300.3 266.3 262.7 276.7 225.2 278.2C187.7 279.7 150.3 272.3 112.8 270.8C75.3 269.3 37.7 273.7 18.8 275.8L0 278Z" fill="#a9ffc2"></path><path d="M0 451L18.8 451C37.7 451 75.3 451 112.8 451C150.3 451 187.7 451 225.2 451C262.7 451 300.3 451 337.8 451C375.3 451 412.7 451 450.2 451C487.7 451 525.3 451 562.8 451C600.3 451 637.7 451 675.2 451C712.7 451 750.3 451 787.8 451C825.3 451 862.7 451 881.3 451L900 451L900 301L881.3 300.2C862.7 299.3 825.3 297.7 787.8 311.8C750.3 326 712.7 356 675.2 348.5C637.7 341 600.3 296 562.8 293.8C525.3 291.7 487.7 332.3 450.2 345.2C412.7 358 375.3 343 337.8 343.7C300.3 344.3 262.7 360.7 225.2 364.3C187.7 368 150.3 359 112.8 350.8C75.3 342.7 37.7 335.3 18.8 331.7L0 328Z" fill="#9cffb8"></path></svg>