<svg xmlns="http://www.w3.org/2000/svg" viewBox="0 0 670.39 379.85"><defs><style>.cls-1{fill:#2b7537;}.cls-2{fill:#ddffe7;}</style></defs><title>logo</title><g id="Layer_2" data-name="Layer 2"><g id="Layer_1-2" data-name="Layer 1"><polygon class="cls-1" points="43.95 191.91 43.95 76.78 0 76.78 0 27.48 139.67 27.48 139.67 76.78 95.72 76.78 95.72 191.91 43.95 191.91"/><path class="cls-1" d="M232.43,194.39a89,89,0,0,1-34.61-6.66,86.57,86.57,0,0,1-27.38-18A81.39,81.39,0,0,1,152.33,143a84.42,84.42,0,0,1-6.45-32.86v-.42a83.2,83.2,0,0,1,6.58-32.92,83.8,83.8,0,0,1,45.69-45.12,93.53,93.53,0,0,1,69.3,0,86.79,86.79,0,0,1,27.38,18,81.34,81.34,0,0,1,18.11,26.79,84.46,84.46,0,0,1,6.45,32.86v.41a83.2,83.2,0,0,1-6.58,32.92,83.95,83.95,0,0,1-45.69,45.13A89.89,89.89,0,0,1,232.43,194.39Zm0-120.09A33.34,33.34,0,0,0,218.83,77a30.39,30.39,0,0,0-10.29,7.3A36.19,36.19,0,0,0,201.6,95.5a37.57,37.57,0,0,0-2.5,13.78v.41a38.35,38.35,0,0,0,2.52,13.92,33.88,33.88,0,0,0,7,11.18,34.32,34.32,0,0,0,10.71,7.58,32.5,32.5,0,0,0,13.51,2.72,33.56,33.56,0,0,0,13.54-2.68,30.22,30.22,0,0,0,10.35-7.29,35.82,35.82,0,0,0,6.93-11.23,37.45,37.45,0,0,0,2.51-13.78v-.42a38.47,38.47,0,0,0-2.52-13.92A33.35,33.35,0,0,0,245.87,77,32.71,32.71,0,0,0,232.43,74.3Z"/><path class="cls-1" d="M416.06,194.39a89,89,0,0,1-34.61-6.66,86.63,86.63,0,0,1-27.37-18A81.18,81.18,0,0,1,336,143a84.34,84.34,0,0,1-6.46-32.85v-.42a83.21,83.21,0,0,1,6.59-32.92,83.8,83.8,0,0,1,45.69-45.12,93.53,93.53,0,0,1,69.3,0,86.63,86.63,0,0,1,27.37,18,81.34,81.34,0,0,1,18.11,26.79A84.46,84.46,0,0,1,503,109.28v.41a83.21,83.21,0,0,1-6.59,32.92,83.86,83.86,0,0,1-45.69,45.13A89.82,89.82,0,0,1,416.06,194.39Zm0-120.09A33.37,33.37,0,0,0,402.46,77a30.58,30.58,0,0,0-10.29,7.3,36,36,0,0,0-6.93,11.24,37.62,37.62,0,0,0-2.51,13.78v.41a38.35,38.35,0,0,0,2.52,13.92,33.91,33.91,0,0,0,7,11.18A34.32,34.32,0,0,0,403,142.37a32.47,32.47,0,0,0,13.51,2.72A33.6,33.6,0,0,0,430,142.41a30.31,30.31,0,0,0,10.35-7.29,36,36,0,0,0,6.93-11.23,37.65,37.65,0,0,0,2.51-13.78v-.42a38.27,38.27,0,0,0-2.53-13.92A33.29,33.29,0,0,0,429.51,77,32.73,32.73,0,0,0,416.06,74.3Z"/><polygon class="cls-1" points="519.54 191.91 519.54 27.48 571.32 27.48 571.32 143.23 643.33 143.23 643.33 191.91 519.54 191.91"/><path class="cls-1" d="M8.25,377.37V212.94h69a79.61,79.61,0,0,1,26.55,4.18,59.59,59.59,0,0,1,20.8,12.31A54.81,54.81,0,0,1,138,248.7a62.76,62.76,0,0,1,4.58,24.17v.41a60.75,60.75,0,0,1-5.51,26.39A55.26,55.26,0,0,1,121.81,319a64.52,64.52,0,0,1-22,11.38A89.14,89.14,0,0,1,74.17,334H60v43.33Zm67-91.6c5.36,0,9.18-1.15,11.67-3.53a10.69,10.69,0,0,0,3.5-8.34v-.41c0-5.33-1.82-7.41-3.18-8.52-2.77-2.22-7-3.35-12.61-3.35H60v24.15Z"/><path class="cls-1" d="M234.49,379.85a89,89,0,0,1-34.61-6.66,86.85,86.85,0,0,1-27.38-18,81.54,81.54,0,0,1-18.11-26.79,84.42,84.42,0,0,1-6.45-32.86v-.42a83.38,83.38,0,0,1,6.58-32.92,83.86,83.86,0,0,1,45.7-45.12,93.51,93.51,0,0,1,69.29,0,86.79,86.79,0,0,1,27.38,18A81.44,81.44,0,0,1,315,261.88a84.46,84.46,0,0,1,6.45,32.86v.41a83.2,83.2,0,0,1-6.58,32.92,83.86,83.86,0,0,1-45.69,45.13A89.86,89.86,0,0,1,234.49,379.85Zm0-120.09a33.37,33.37,0,0,0-13.6,2.66,30.58,30.58,0,0,0-10.29,7.3A36,36,0,0,0,203.67,281a37.41,37.41,0,0,0-2.51,13.78v.41a38.35,38.35,0,0,0,2.52,13.92,33.54,33.54,0,0,0,17.72,18.76,32.42,32.42,0,0,0,13.5,2.72,33.53,33.53,0,0,0,13.54-2.68,30.22,30.22,0,0,0,10.35-7.29,36,36,0,0,0,6.94-11.23,37.65,37.65,0,0,0,2.5-13.78v-.42a38.47,38.47,0,0,0-2.52-13.92,33.26,33.26,0,0,0-17.78-18.74A32.68,32.68,0,0,0,234.49,259.76Z"/><path class="cls-1" d="M418.13,379.85a89,89,0,0,1-34.61-6.66,86.57,86.57,0,0,1-27.38-18A81.24,81.24,0,0,1,338,328.43a84.42,84.42,0,0,1-6.45-32.86v-.42a83.2,83.2,0,0,1,6.58-32.92,83.8,83.8,0,0,1,45.69-45.12,93.53,93.53,0,0,1,69.3,0,86.79,86.79,0,0,1,27.38,18,81.26,81.26,0,0,1,18.1,26.79,84.28,84.28,0,0,1,6.46,32.86v.41a83.38,83.38,0,0,1-6.58,32.92,83.95,83.95,0,0,1-45.69,45.13A89.89,89.89,0,0,1,418.13,379.85Zm0-120.09a33.42,33.42,0,0,0-13.61,2.66,30.44,30.44,0,0,0-10.28,7.3A36,36,0,0,0,387.3,281a37.61,37.61,0,0,0-2.5,13.78v.41a38.14,38.14,0,0,0,2.52,13.92,33.88,33.88,0,0,0,7,11.18A34.32,34.32,0,0,0,405,327.83a32.5,32.5,0,0,0,13.51,2.72,33.56,33.56,0,0,0,13.54-2.68,30.22,30.22,0,0,0,10.35-7.29,35.82,35.82,0,0,0,6.93-11.23,37.45,37.45,0,0,0,2.51-13.78v-.42a38.47,38.47,0,0,0-2.52-13.92,33.35,33.35,0,0,0-17.78-18.74A32.71,32.71,0,0,0,418.13,259.76Z"/><polygon class="cls-1" points="521.61 377.37 521.61 212.94 573.38 212.94 573.38 328.69 645.39 328.69 645.39 377.37 521.61 377.37"/><polygon class="cls-1" points="58.95 176.91 58.95 61.78 15 61.78 15 2.48 164.67 2.48 164.67 61.78 120.72 61.78 120.72 176.91 58.95 176.91"/><path class="cls-1" d="M252.43,179.39a93.91,93.91,0,0,1-36.54-7,91.68,91.68,0,0,1-28.95-19,86.25,86.25,0,0,1-19.22-28.43,89.31,89.31,0,0,1-6.84-34.79v-.42a88.28,88.28,0,0,1,7-34.88A88.92,88.92,0,0,1,216.23,7a98.53,98.53,0,0,1,73.15,0,91.82,91.82,0,0,1,28.95,19,86.48,86.48,0,0,1,19.21,28.43,89.26,89.26,0,0,1,6.85,34.8v.41a88.33,88.33,0,0,1-7,34.89A88.86,88.86,0,0,1,289,172.35,94.76,94.76,0,0,1,252.43,179.39Zm0-120.09a28.59,28.59,0,0,0-11.59,2.23,25.63,25.63,0,0,0-8.61,6.11,31,31,0,0,0-6,9.68,32.51,32.51,0,0,0-2.16,12v.41a33.36,33.36,0,0,0,2.18,12.12,28.84,28.84,0,0,0,6,9.53,29.14,29.14,0,0,0,9.15,6.48,27.58,27.58,0,0,0,11.44,2.27,28.63,28.63,0,0,0,11.54-2.26,25.33,25.33,0,0,0,8.67-6.09,31.12,31.12,0,0,0,6-9.68,32.66,32.66,0,0,0,2.16-12v-.42A33.27,33.27,0,0,0,279,77.57a28.19,28.19,0,0,0-15.16-16A27.53,27.53,0,0,0,252.43,59.3Z"/><path class="cls-1" d="M436.06,179.39a94,94,0,0,1-36.54-7,91.52,91.52,0,0,1-28.94-19,86.09,86.09,0,0,1-19.22-28.43,89.32,89.32,0,0,1-6.85-34.79v-.42a88.08,88.08,0,0,1,7-34.88A88.92,88.92,0,0,1,399.87,7a98.53,98.53,0,0,1,73.15,0,91.89,91.89,0,0,1,28.94,19,86.35,86.35,0,0,1,19.22,28.43A89.48,89.48,0,0,1,528,89.28v.41a88.16,88.16,0,0,1-7,34.89,88.86,88.86,0,0,1-48.37,47.77A94.69,94.69,0,0,1,436.06,179.39Zm0-120.09a28.55,28.55,0,0,0-11.58,2.23,25.67,25.67,0,0,0-8.62,6.11,30.94,30.94,0,0,0-6,9.68,32.51,32.51,0,0,0-2.17,12v.41a33.36,33.36,0,0,0,2.19,12.12,28.53,28.53,0,0,0,15.12,16,27.54,27.54,0,0,0,11.44,2.27A28.7,28.7,0,0,0,448,117.83a25.29,25.29,0,0,0,8.66-6.09,31.15,31.15,0,0,0,6-9.68,32.7,32.7,0,0,0,2.16-12v-.42a33.48,33.48,0,0,0-2.19-12.12,28.28,28.28,0,0,0-15.16-16A27.58,27.58,0,0,0,436.06,59.3Z"/><polygon class="cls-1" points="534.54 176.91 534.54 2.48 596.32 2.48 596.32 118.23 668.33 118.23 668.33 176.91 534.54 176.91"/><path class="cls-1" d="M23.25,362.37V187.94h74a84.75,84.75,0,0,1,28.21,4.46A64.41,64.41,0,0,1,148,205.76a59.86,59.86,0,0,1,14.58,21,67.63,67.63,0,0,1,5,26.09v.41a65.78,65.78,0,0,1-6,28.55A60.16,60.16,0,0,1,145,302.93a69.58,69.58,0,0,1-23.66,12.28A94.16,94.16,0,0,1,94.17,319H85v43.33Zm72-101.6c4,0,6.72-.72,8.22-2.15a5.72,5.72,0,0,0,2-4.72v-.41c0-3.55-1-4.33-1.32-4.62-1.8-1.45-5.16-2.25-9.47-2.25H85v14.15Z"/><path class="cls-1" d="M254.49,364.85A94,94,0,0,1,218,357.8a91.68,91.68,0,0,1-28.95-19,86.25,86.25,0,0,1-19.22-28.43,89.31,89.31,0,0,1-6.84-34.79v-.42a88.11,88.11,0,0,1,7-34.88,88.83,88.83,0,0,1,48.37-47.78,98.5,98.5,0,0,1,73.14,0,91.82,91.82,0,0,1,28.95,19,86.5,86.5,0,0,1,19.22,28.43,89.47,89.47,0,0,1,6.84,34.8v.41a88.33,88.33,0,0,1-7,34.89,88.86,88.86,0,0,1-48.37,47.77A94.73,94.73,0,0,1,254.49,364.85Zm0-120.09A28.55,28.55,0,0,0,242.91,247a25.57,25.57,0,0,0-8.62,6.11,31.15,31.15,0,0,0-6,9.68,32.72,32.72,0,0,0-2.16,12v.41a33.57,33.57,0,0,0,2.18,12.12,28.53,28.53,0,0,0,15.12,16,27.61,27.61,0,0,0,11.44,2.27,28.63,28.63,0,0,0,11.54-2.26,25.33,25.33,0,0,0,8.67-6.09,30.82,30.82,0,0,0,6-9.68,32.46,32.46,0,0,0,2.16-11.95v-.42A33.47,33.47,0,0,0,281.05,263a28.28,28.28,0,0,0-15.16-16A27.61,27.61,0,0,0,254.49,244.76Z"/><path class="cls-1" d="M438.13,364.85a93.87,93.87,0,0,1-36.54-7.05,91.45,91.45,0,0,1-28.95-19,86.25,86.25,0,0,1-19.22-28.43,89.28,89.28,0,0,1-6.84-34.79v-.42a88.28,88.28,0,0,1,7-34.88,88.92,88.92,0,0,1,48.37-47.78,98.53,98.53,0,0,1,73.15,0,91.66,91.66,0,0,1,28.94,19,86.35,86.35,0,0,1,19.22,28.43,89.3,89.3,0,0,1,6.85,34.8v.41a88.16,88.16,0,0,1-7,34.89,88.8,88.8,0,0,1-48.36,47.77A94.76,94.76,0,0,1,438.13,364.85Zm0-120.09A28.56,28.56,0,0,0,426.54,247a25.77,25.77,0,0,0-8.62,6.11,30.94,30.94,0,0,0-6,9.68,32.51,32.51,0,0,0-2.16,12v.41A33.36,33.36,0,0,0,412,287.27a28.84,28.84,0,0,0,6,9.53,29.14,29.14,0,0,0,9.15,6.48,27.58,27.58,0,0,0,11.44,2.27,28.63,28.63,0,0,0,11.54-2.26,25.2,25.2,0,0,0,8.66-6.09,31,31,0,0,0,6-9.68,32.7,32.7,0,0,0,2.16-11.95v-.42A33.48,33.48,0,0,0,464.68,263a28.19,28.19,0,0,0-15.16-16A27.53,27.53,0,0,0,438.13,244.76Z"/><polygon class="cls-1" points="536.61 362.37 536.61 187.94 598.38 187.94 598.38 303.69 670.39 303.69 670.39 362.37 536.61 362.37"/><polygon class="cls-2" points="69.45 166.41 69.45 51.28 25.5 51.28 25.5 14.98 152.17 14.98 152.17 51.28 108.22 51.28 108.22 166.41 69.45 166.41"/><path class="cls-2" d="M251.43,168.89a82.46,82.46,0,0,1-32.1-6.16A80.18,80.18,0,0,1,194,146.12a75,75,0,0,1-16.67-24.67,78,78,0,0,1-5.94-30.34v-.42a76.76,76.76,0,0,1,6.06-30.36,77.34,77.34,0,0,1,42.21-41.68,87.08,87.08,0,0,1,64.29,0,80.49,80.49,0,0,1,25.34,16.62,74.78,74.78,0,0,1,16.66,24.67,77.87,77.87,0,0,1,5.95,30.34v.41a76.81,76.81,0,0,1-6.06,30.37,77.34,77.34,0,0,1-42.21,41.68A83.38,83.38,0,0,1,251.43,168.89Zm0-120.09A39.91,39.91,0,0,0,235.2,52a36.91,36.91,0,0,0-12.45,8.86,42.56,42.56,0,0,0-8.2,13.25,44.06,44.06,0,0,0-3,16.16v.41a44.72,44.72,0,0,0,3,16.28,40.16,40.16,0,0,0,8.35,13.29,40.66,40.66,0,0,0,12.74,9,38.78,38.78,0,0,0,16.19,3.3A40.17,40.17,0,0,0,268,129.37a37,37,0,0,0,12.54-8.85,42.4,42.4,0,0,0,8.19-13.26,43.84,43.84,0,0,0,3-16.15v-.42a45,45,0,0,0-3-16.27A39.75,39.75,0,0,0,267.53,52.1,39.13,39.13,0,0,0,251.43,48.8Z"/><path class="cls-2" d="M435.06,168.89A82.44,82.44,0,0,1,403,162.73a80.06,80.06,0,0,1-25.34-16.61A74.86,74.86,0,0,1,361,121.45,77.8,77.8,0,0,1,355,91.11v-.42a76.76,76.76,0,0,1,6.06-30.36,77.42,77.42,0,0,1,42.21-41.68,87.08,87.08,0,0,1,64.29,0,80.37,80.37,0,0,1,25.34,16.62,74.87,74.87,0,0,1,16.67,24.66,78.14,78.14,0,0,1,5.95,30.35v.41a76.81,76.81,0,0,1-6.06,30.37,77.42,77.42,0,0,1-42.21,41.68A83.43,83.43,0,0,1,435.06,168.89Zm0-120.09A39.9,39.9,0,0,0,418.84,52a37,37,0,0,0-12.46,8.86,42.47,42.47,0,0,0-8.19,13.25,44.1,44.1,0,0,0-3,16.16v.41a44.93,44.93,0,0,0,3,16.28,40.16,40.16,0,0,0,21.09,22.32,38.83,38.83,0,0,0,16.2,3.3,40.15,40.15,0,0,0,16.13-3.22,36.94,36.94,0,0,0,12.55-8.85,42.4,42.4,0,0,0,8.19-13.26,44,44,0,0,0,3-16.15v-.42a44.79,44.79,0,0,0-3-16.27A39.78,39.78,0,0,0,451.17,52.1,39.14,39.14,0,0,0,435.06,48.8Z"/><polygon class="cls-2" points="545.04 166.41 545.04 14.98 583.82 14.98 583.82 130.73 655.83 130.73 655.83 166.41 545.04 166.41"/><path class="cls-2" d="M33.75,351.87V200.44H96.26a73.21,73.21,0,0,1,24.38,3.81,53.18,53.18,0,0,1,18.55,10.94,48.44,48.44,0,0,1,11.79,17,56.25,56.25,0,0,1,4.08,21.67v.41a54.33,54.33,0,0,1-4.88,23.59A48.54,48.54,0,0,1,136.73,295,57.76,57.76,0,0,1,117,305.19a82.64,82.64,0,0,1-23.81,3.35H72.53v43.33Zm38.78-78.6H94.2c7.11,0,12.4-1.74,16.16-5.32a17.16,17.16,0,0,0,5.51-13v-.41c0-6.09-1.83-10.53-5.6-13.58-4-3.18-9.57-4.79-16.69-4.79h-21Z"/><path class="cls-2" d="M253.49,354.35a82.49,82.49,0,0,1-32.1-6.16,80.18,80.18,0,0,1-25.34-16.61,74.83,74.83,0,0,1-16.66-24.67,77.8,77.8,0,0,1-5.95-30.34v-.42a76.76,76.76,0,0,1,6.06-30.36,77.34,77.34,0,0,1,42.21-41.68,87.08,87.08,0,0,1,64.29,0,80.49,80.49,0,0,1,25.34,16.62A74.91,74.91,0,0,1,328,245.4,78,78,0,0,1,334,275.74v.41a76.64,76.64,0,0,1-6.06,30.37,77.34,77.34,0,0,1-42.21,41.68A83.38,83.38,0,0,1,253.49,354.35Zm0-120.09a40,40,0,0,0-16.23,3.21,36.91,36.91,0,0,0-12.45,8.86,42.35,42.35,0,0,0-8.19,13.25,44.1,44.1,0,0,0-3,16.16v.41a44.93,44.93,0,0,0,3,16.28,40.07,40.07,0,0,0,21.09,22.32,38.82,38.82,0,0,0,16.19,3.3A40,40,0,0,0,270,314.83,36.8,36.8,0,0,0,282.58,306a42.61,42.61,0,0,0,8.2-13.26,44,44,0,0,0,3-16.15v-.42a44.75,44.75,0,0,0-3-16.27,39.78,39.78,0,0,0-21.17-22.32A39.14,39.14,0,0,0,253.49,234.26Z"/><path class="cls-2" d="M437.13,354.35a82.46,82.46,0,0,1-32.1-6.16,80.18,80.18,0,0,1-25.34-16.61A74.86,74.86,0,0,1,363,306.91a78,78,0,0,1-5.94-30.34v-.42a76.59,76.59,0,0,1,6.06-30.36,77.34,77.34,0,0,1,42.21-41.68,87.08,87.08,0,0,1,64.29,0A80.6,80.6,0,0,1,495,220.73a74.88,74.88,0,0,1,16.66,24.67,77.87,77.87,0,0,1,6,30.34v.41a76.81,76.81,0,0,1-6.06,30.37,77.34,77.34,0,0,1-42.21,41.68A83.38,83.38,0,0,1,437.13,354.35Zm0-120.09a39.91,39.91,0,0,0-16.23,3.21,36.91,36.91,0,0,0-12.45,8.86,42.49,42.49,0,0,0-8.2,13.25,44.09,44.09,0,0,0-2.95,16.16v.41a44.72,44.72,0,0,0,3,16.28,40.07,40.07,0,0,0,21.09,22.32,38.82,38.82,0,0,0,16.19,3.3,40,40,0,0,0,16.14-3.22A37,37,0,0,0,466.22,306a42.4,42.4,0,0,0,8.19-13.26,43.84,43.84,0,0,0,3-16.15v-.42a45,45,0,0,0-3-16.27,39.84,39.84,0,0,0-21.18-22.32A39.13,39.13,0,0,0,437.13,234.26Z"/><polygon class="cls-2" points="547.11 351.87 547.11 200.44 585.88 200.44 585.88 316.19 657.89 316.19 657.89 351.87 547.11 351.87"/></g></g></svg>