<svg id="visual" viewBox="0 0 900 600" width="900" height="600" xmlns="http://www.w3.org/2000/svg" xmlns:xlink="http://www.w3.org/1999/xlink" version="1.1"><path d="M0 145L13.7 152C27.3 159 54.7 173 82 192C109.3 211 136.7 235 163.8 228C191 221 218 183 245.2 163C272.3 143 299.7 141 327 153C354.3 165 381.7 191 409 204C436.3 217 463.7 217 491 195C518.3 173 545.7 129 573 128C600.3 127 627.7 169 654.8 187C682 205 709 199 736.2 190C763.3 181 790.7 169 818 188C845.3 207 872.7 257 886.3 282L900 307L900 0L886.3 0C872.7 0 845.3 0 818 0C790.7 0 763.3 0 736.2 0C709 0 682 0 654.8 0C627.7 0 600.3 0 573 0C545.7 0 518.3 0 491 0C463.7 0 436.3 0 409 0C381.7 0 354.3 0 327 0C299.7 0 272.3 0 245.2 0C218 0 191 0 163.8 0C136.7 0 109.3 0 82 0C54.7 0 27.3 0 13.7 0L0 0Z" fill="#07290d"></path><path d="M0 199L13.7 203C27.3 207 54.7 215 82 233C109.3 251 136.7 279 163.8 275C191 271 218 235 245.2 214C272.3 193 299.7 187 327 201C354.3 215 381.7 249 409 265C436.3 281 463.7 279 491 259C518.3 239 545.7 201 573 196C600.3 191 627.7 219 654.8 232C682 245 709 243 736.2 240C763.3 237 790.7 233 818 250C845.3 267 872.7 305 886.3 324L900 343L900 305L886.3 280C872.7 255 845.3 205 818 186C790.7 167 763.3 179 736.2 188C709 197 682 203 654.8 185C627.7 167 600.3 125 573 126C545.7 127 518.3 171 491 193C463.7 215 436.3 215 409 202C381.7 189 354.3 163 327 151C299.7 139 272.3 141 245.2 161C218 181 191 219 163.8 226C136.7 233 109.3 209 82 190C54.7 171 27.3 157 13.7 150L0 143Z" fill="#072f10"></path><path d="M0 265L13.7 270C27.3 275 54.7 285 82 307C109.3 329 136.7 363 163.8 364C191 365 218 333 245.2 318C272.3 303 299.7 305 327 319C354.3 333 381.7 359 409 372C436.3 385 463.7 385 491 374C518.3 363 545.7 341 573 345C600.3 349 627.7 379 654.8 394C682 409 709 409 736.2 405C763.3 401 790.7 393 818 395C845.3 397 872.7 409 886.3 415L900 421L900 341L886.3 322C872.7 303 845.3 265 818 248C790.7 231 763.3 235 736.2 238C709 241 682 243 654.8 230C627.7 217 600.3 189 573 194C545.7 199 518.3 237 491 257C463.7 277 436.3 279 409 263C381.7 247 354.3 213 327 199C299.7 185 272.3 191 245.2 212C218 233 191 269 163.8 273C136.7 277 109.3 249 82 231C54.7 213 27.3 205 13.7 201L0 197Z" fill="#083512"></path><path d="M0 361L13.7 370C27.3 379 54.7 397 82 416C109.3 435 136.7 455 163.8 444C191 433 218 391 245.2 379C272.3 367 299.7 385 327 412C354.3 439 381.7 475 409 480C436.3 485 463.7 459 491 441C518.3 423 545.7 413 573 421C600.3 429 627.7 455 654.8 467C682 479 709 477 736.2 475C763.3 473 790.7 471 818 470C845.3 469 872.7 469 886.3 469L900 469L900 419L886.3 413C872.7 407 845.3 395 818 393C790.7 391 763.3 399 736.2 403C709 407 682 407 654.8 392C627.7 377 600.3 347 573 343C545.7 339 518.3 361 491 372C463.7 383 436.3 383 409 370C381.7 357 354.3 331 327 317C299.7 303 272.3 301 245.2 316C218 331 191 363 163.8 362C136.7 361 109.3 327 82 305C54.7 283 27.3 273 13.7 268L0 263Z" fill="#093b14"></path><path d="M0 601L13.7 601C27.3 601 54.7 601 82 601C109.3 601 136.7 601 163.8 601C191 601 218 601 245.2 601C272.3 601 299.7 601 327 601C354.3 601 381.7 601 409 601C436.3 601 463.7 601 491 601C518.3 601 545.7 601 573 601C600.3 601 627.7 601 654.8 601C682 601 709 601 736.2 601C763.3 601 790.7 601 818 601C845.3 601 872.7 601 886.3 601L900 601L900 467L886.3 467C872.7 467 845.3 467 818 468C790.7 469 763.3 471 736.2 473C709 475 682 477 654.8 465C627.7 453 600.3 427 573 419C545.7 411 518.3 421 491 439C463.7 457 436.3 483 409 478C381.7 473 354.3 437 327 410C299.7 383 272.3 365 245.2 377C218 389 191 431 163.8 442C136.7 453 109.3 433 82 414C54.7 395 27.3 377 13.7 368L0 359Z" fill="#0b4115"></path></svg>